<svg width="326" height="92" viewBox="0 0 326 92" fill="none" xmlns="http://www.w3.org/2000/svg">
<path d="M271.375 56.4477C269.468 60.0652 266.946 62.8334 262.47 61.9725C258.416 61.1927 256.055 58.4449 255.036 54.0622C254.45 54.8419 254.133 55.2187 253.862 55.6303C251.969 58.5173 249.474 60.6333 246.119 61.6478C241.853 62.9377 237.668 61.4855 234.957 57.7898C234.596 57.297 234.229 56.81 233.728 56.1376C233.245 56.81 232.881 57.2941 232.543 57.7985C228.993 63.0711 222.942 63.5232 218.571 58.8536C215.875 55.9723 214.986 52.3897 214.64 48.6388C214.174 43.5953 214.783 38.6154 215.84 33.682C215.962 33.1168 216.041 32.5399 216.163 31.9747C216.364 31.0616 215.95 30.7283 215.077 30.7544C213.621 30.7979 212.156 30.7225 210.714 30.8906C210.187 30.9515 209.451 31.4559 209.273 31.9312C205.831 41.2097 201.017 49.6881 194.663 57.3057C194.253 57.7985 194.034 58.5869 194.011 59.2449C193.81 65.0305 193.944 70.8393 193.437 76.5931C193.033 81.1903 191.597 85.5498 187.826 88.7934C182.744 93.1645 174.433 92.7674 170.63 87.689C167.983 84.1585 168.4 80.3352 170.336 76.6163C172.153 73.1321 174.978 70.448 177.791 67.7842C180.249 65.4537 182.771 63.187 185.26 60.8884C186.559 59.6913 186.769 58.2362 185.825 56.3318C183.117 59.5956 179.928 62.0189 175.528 62.0942C170.983 62.1725 168.085 59.5695 165.837 55.6303C165.418 56.2709 165.109 56.7115 164.832 57.1724C163.213 59.8913 161.012 61.8102 157.715 62.0565C153.956 62.3377 150.363 59.755 149.113 55.9752C148.968 55.5318 148.834 55.0854 148.589 54.2969C148.05 54.9694 147.686 55.3665 147.386 55.81C145.086 59.2246 142.008 61.5435 137.852 62.0478C132.969 62.6421 128.688 59.5898 126.696 54.323C126.429 53.6158 126.184 52.9027 125.779 51.778C125.325 52.5433 125.104 52.9694 124.833 53.3636C123.397 55.4651 122.18 57.7724 120.459 59.613C116.184 64.187 110.861 61.7667 108.517 58.6362C106.574 56.0419 105.773 53.0302 105.232 49.9142C105.11 49.2128 104.955 48.5142 104.486 47.7229C104.224 48.1867 103.942 48.6417 103.697 49.1171C101.324 53.7404 98.5079 58.0072 93.6216 60.3579C87.8645 63.129 82.0579 62.8015 76.3619 60.1608C74.2624 59.1869 74.0207 58.1463 74.9612 56.0332C75.1767 55.552 75.4679 55.097 75.7766 54.6651C77.3841 52.4215 78.3305 52.2824 80.5553 53.8593C81.423 54.4738 82.3083 55.0912 83.2605 55.5491C86.3356 57.0303 89.2273 55.4274 89.6787 52.0563C89.964 49.92 89.5709 47.9461 88.4003 46.1055C86.4463 43.0329 83.5372 40.943 80.8261 38.3227C79.1458 41.1169 77.6986 43.6735 76.1028 46.1373C73.613 49.9838 71.1552 53.868 68.4062 57.526C67.2618 59.0507 65.535 60.2884 63.8344 61.2275C60.2526 63.2102 56.9212 61.8507 55.9457 57.8883C55.238 55.0129 54.8595 51.9839 54.8566 49.0215C54.8507 42.601 55.1827 36.1835 55.372 29.7631C55.3865 29.2529 55.372 28.7428 55.372 28.2326C55.2497 28.1688 55.1245 28.1051 55.0022 28.0413C54.5624 28.4239 54.0645 28.7544 53.6947 29.1949C49.3295 34.3545 46.7116 40.43 44.845 46.8069C43.5608 51.1896 42.7308 55.7086 41.7524 60.1782C41.5456 61.1232 41.1933 61.8826 40.1886 61.9899C36.2661 62.4102 33.8171 61.9493 33.5288 57.2072C33.3046 53.4998 33.3687 49.7751 33.3774 46.0591C33.3949 38.4763 33.4589 30.8906 33.5084 23.3079C33.5201 21.5513 33.9336 21.1774 35.6808 21.3194C36.2108 21.3629 36.7466 21.418 37.262 21.5426C41.0157 22.4557 41.1846 22.6673 41.1758 26.4876C41.1642 31.0298 41.135 35.569 41.1118 40.1082C41.1118 40.572 41.1118 41.0387 41.1118 41.5025L41.5194 41.6329C41.7844 41.0822 42.0698 40.5372 42.3144 39.9778C44.1053 35.8704 45.6895 31.6588 47.7541 27.6964C48.7646 25.7572 50.4885 24.0673 52.2095 22.6441C54.2538 20.9542 56.7173 20.7513 59.1518 22.0962C59.9148 22.5165 60.6661 22.9571 61.4203 23.3948C63.2461 24.4499 63.9508 26.0326 63.8809 28.1196C63.6596 34.6849 63.482 41.2503 63.3626 47.8156C63.3364 49.3026 63.5053 50.8128 63.7703 52.2766C64.1547 54.3984 65.401 54.8216 66.8367 53.1955C68.3305 51.5056 69.6468 49.6244 70.8087 47.691C73.0189 44.004 75.037 40.2039 77.1977 36.485C77.783 35.4791 77.4015 34.8356 76.8249 34.0298C74.769 31.1718 74.9874 27.45 77.3171 24.3166C79.5943 21.2527 83.3246 19.7918 86.3356 20.7832C88.0159 21.3368 88.6682 22.2238 88.6391 24.0151C88.5983 26.6587 87.2296 28.7949 85.8522 30.8964C84.2972 33.2704 84.2652 33.2385 86.6065 35.0067C88.7293 36.6096 90.8697 38.198 92.9431 39.8647C96.356 42.6068 98.3099 46.0388 97.8294 50.5606C97.8178 50.6824 97.9139 50.8128 98.1207 51.3925C99.3 49.9606 100.444 48.8128 101.303 47.4823C103.488 44.0967 104.812 40.4734 104.667 36.3081C104.498 31.3892 104.681 26.4558 104.705 21.531C104.716 19.1976 104.711 19.2063 102.43 19.1483C100.345 19.0933 98.2604 18.9483 96.1754 18.9744C94.731 18.9918 94.4369 18.1686 94.4719 17.0439C94.4893 16.4729 94.6611 15.9019 94.8009 15.3396C95.395 12.9453 95.7619 12.6525 98.176 12.7221C99.9698 12.7743 101.769 12.8091 103.554 12.9627C104.81 13.0699 105.249 12.6873 105.27 11.3801C105.319 8.24376 105.494 5.10745 105.718 1.97985C105.832 0.388508 106.621 -0.234694 108.138 0.0783565C109.932 0.449379 111.691 1.01171 113.452 1.51897C114.559 1.83782 114.891 2.60305 114.827 3.73641C114.673 6.43502 114.67 9.14233 114.521 11.8438C114.46 12.9482 114.78 13.3917 115.942 13.4265C118.851 13.5134 121.758 13.7047 124.664 13.8729C126.583 13.983 127.031 14.3511 127.014 15.699C126.985 17.844 126.05 19.2469 124.472 19.2962C121.513 19.3889 118.551 19.4121 115.593 19.4266C114.725 19.4324 114.253 19.6556 114.236 20.6411C114.07 29.6674 113.799 38.6908 113.744 47.7171C113.732 49.6968 114.247 51.7491 114.885 53.6477C115.747 56.2187 117.558 56.6883 119.579 54.9057C123.004 51.8824 124.774 47.9635 125.022 43.4416C125.304 38.3024 125.698 33.1602 128.211 28.5659C129.413 26.3659 131.003 24.2035 132.905 22.5919C136.784 19.3078 142.081 19.8614 145.633 23.5079C145.997 23.8818 146.356 24.2586 146.699 24.6151C146.883 24.5108 147.017 24.4818 147.031 24.4238C147.587 22.0701 148.135 21.6817 150.558 21.96C150.942 22.0035 151.318 22.1049 151.696 22.1948C155.336 23.0528 155.52 23.3861 155.462 27.079C155.342 34.4153 155.261 41.7546 155.281 49.091C155.287 50.7577 155.674 52.4476 156.076 54.0795C156.414 55.4564 157.066 56.7434 158.697 57.0622C160.461 57.4072 161.562 56.4274 162.395 55.0796C163.606 53.1259 164.329 51.1317 164.037 48.6736C163.208 41.659 163.848 34.7835 167.002 28.3196C168.266 25.7282 169.902 23.4238 172.447 21.873C175.916 19.76 180.327 20.0701 183.405 22.7368C184.087 23.3252 184.658 24.0412 185.243 24.6615C185.514 24.4905 185.648 24.4557 185.665 24.389C186.271 22.1281 186.879 21.7136 189.256 21.9658C189.494 21.9919 189.736 22.0296 189.972 22.0846C194.011 23.0035 194.125 23.1484 194.075 27.2384C193.988 34.6269 193.897 42.0155 193.822 49.407C193.816 49.9548 193.909 50.5027 193.994 51.4766C194.57 50.8737 194.893 50.6186 195.112 50.294C198.766 44.7837 201.676 38.9285 203.466 32.5457C203.755 31.5167 203.644 30.7979 202.776 30.0008C200.889 28.2645 200.732 25.1195 202.203 22.4789C203.452 20.2382 205.825 19.1367 208.353 19.6266C209.812 19.9078 210.889 20.9629 211.07 22.4557C211.169 23.2586 211.096 24.0905 211.038 24.905C210.982 25.6731 211.227 25.9862 212.034 25.8325C214.32 25.3978 216.608 24.9804 218.897 24.5803C219.611 24.4557 220.342 24.3108 221.055 24.3369C223.903 24.4441 225.595 26.5253 225.109 29.3167C224.349 33.6878 223.399 38.0328 222.814 42.4242C222.284 46.4185 222.479 50.4331 224.054 54.2448C224.343 54.9404 224.788 55.6158 225.304 56.1665C226.442 57.3811 228.277 57.5463 229.488 56.4187C231.375 54.6651 232.316 52.5549 231.99 49.8302C230.968 41.2851 231.236 32.9197 236.41 25.4818C239.328 21.2875 243.32 19.6092 247.677 20.9223C249.145 21.3629 250.452 22.4209 251.742 23.3223C252.223 23.6557 252.45 24.3485 252.793 24.876C252.965 24.7572 253.137 24.6383 253.309 24.5224C253.396 24.1687 253.507 23.8209 253.568 23.4644C253.746 22.447 254.395 21.9629 255.382 21.9339C256.058 21.9136 256.748 21.9223 257.412 22.0354C261.495 22.7281 261.94 23.4847 261.841 27.5775C261.66 34.9603 261.614 42.3489 261.652 49.7345C261.66 51.4389 262.059 53.2013 262.601 54.8303C263.521 57.5956 266.151 58.0246 267.994 55.7376C270.234 52.9549 271.558 49.7055 271.649 46.1547C271.838 38.8154 271.818 31.4733 271.882 24.1311C271.905 21.4411 272.473 20.8904 275.129 21.4846C280.079 22.589 280.018 22.1252 279.966 27.1891C279.936 29.9428 279.957 32.6965 279.966 35.4502C279.966 35.9458 280.03 36.4415 280.065 36.9342C280.198 36.9545 280.332 36.9748 280.469 36.9951C281.011 35.4357 281.523 33.8675 282.1 32.3225C283.163 29.479 284.165 26.6036 285.376 23.8238C286.445 21.3716 287.496 20.9513 290.123 21.418C293.894 22.0904 295.615 24.2006 295.72 28.0065C295.845 32.6385 296.092 37.2676 296.296 41.8967C296.317 42.3547 296.416 42.8097 296.835 43.3344C296.966 42.9808 297.152 42.6358 297.219 42.2706C298.372 35.9748 300.324 29.9225 302.764 24.018C303.838 21.4151 305.265 20.7832 307.962 21.6209C308.608 21.8209 309.246 22.0614 309.875 22.3107C313.41 23.7166 313.952 24.7832 313.92 28.5428C313.859 35.682 313.894 42.8271 314.08 49.9635C314.124 51.5925 314.837 53.2418 315.446 54.8013C315.868 55.8854 316.683 56.8013 318.052 56.8013C319.4 56.8013 320.245 55.9926 320.673 54.8477C321.346 53.0505 321.844 51.1896 322.478 49.3751C322.804 48.4388 322.807 46.9606 324.275 47.1953C325.664 47.4185 325.591 48.8591 325.387 49.8157C324.843 52.3926 324.415 55.0854 323.314 57.439C320.114 64.2914 312.839 62.7957 309.54 58.2854C307.277 55.1926 306.579 51.5636 306.395 47.8881C306.142 42.83 306.185 37.7546 306.098 32.6878C306.092 32.2791 306.043 31.8704 306.017 31.4646C305.894 31.4269 305.772 31.3863 305.65 31.3486C305.388 31.8037 305.073 32.2385 304.872 32.7197C301.625 40.3981 299.66 48.3664 299.497 56.7289C299.473 57.8912 298.897 58.5086 297.834 58.7811C294.735 59.5811 291.727 58.0854 291.028 54.9607C290.201 51.2534 289.666 47.4649 289.264 43.6851C288.882 40.0879 288.85 36.456 288.626 32.8414C288.6 32.4153 288.341 32.0037 288.186 31.5863C287.843 31.8791 287.368 32.1051 287.173 32.4762C284.357 37.8386 282.589 43.5344 282.019 49.5548C281.704 52.8679 281.643 56.2071 281.474 59.5347C281.387 61.2478 280.976 61.8797 279.261 61.9638C277.592 62.0449 275.886 61.8594 274.229 61.5957C272.761 61.3609 272.01 60.3666 272.021 58.8217C272.027 58.0796 271.885 57.3376 271.812 56.5984C271.663 56.5463 271.512 56.4912 271.363 56.439L271.375 56.4477ZM133.572 43.3141C133.578 46.7055 133.726 50.3229 135.258 53.7056C136.985 57.5231 140.234 58.0014 143.039 54.8767C144.981 52.7114 145.831 50.0447 146.364 47.2794C147.386 41.9691 147.649 36.6444 146.166 31.366C145.38 28.5717 143.577 27.0123 141.251 26.963C138.872 26.9137 136.81 28.5688 135.599 31.4414C134.026 35.1661 133.758 39.1082 133.572 43.3112V43.3141ZM253.518 39.4271C253.652 39.4039 253.789 39.3807 253.923 39.3546C253.323 36.3458 253.07 33.2124 252.039 30.3573C250.513 26.1369 245.883 25.6499 243.239 29.2993C242.272 30.6327 241.573 32.2617 241.134 33.8588C239.884 38.427 239.742 43.1431 240.234 47.8069C240.484 50.1954 241.218 52.6592 242.307 54.7984C243.67 57.468 246.521 57.7724 248.615 55.6187C249.858 54.3375 250.854 52.7056 251.582 51.065C253.216 47.3808 253.431 43.4011 253.516 39.4271H253.518ZM185.822 39.001C185.84 35.8994 185.764 32.8037 184.48 29.9051C183.059 26.6963 179.495 25.8441 176.955 28.2732C175.741 29.4355 174.707 30.9892 174.128 32.5602C171.976 38.4009 171.725 44.4475 172.89 50.5287C173.175 52.0128 173.778 53.5056 174.556 54.8071C176.041 57.297 178.536 57.755 180.674 55.7984C181.944 54.6332 182.998 53.0592 183.682 51.4679C185.383 47.5113 185.825 43.2793 185.825 38.9981L185.822 39.001ZM186.451 66.2972C186.204 66.3668 186.029 66.3668 185.942 66.4508C182.101 70.2161 178.248 74.0046 176.047 79.0105C175.368 80.5526 174.984 82.3613 175.01 84.0396C175.057 87.0803 177.578 88.7557 180.572 88.0832C183.251 87.4832 184.428 85.486 185.156 83.1353C186.807 77.7931 186.783 72.2828 186.679 66.7726C186.679 66.6479 186.565 66.5233 186.451 66.2943V66.2972Z" fill="white"/>
<path d="M15.8794 5.42058C15.1135 6.18872 14.2545 6.88438 13.5963 7.73078C8.75655 13.9483 6.82878 21.0064 7.88003 28.7776C8.11299 30.4878 9.08561 32.1052 9.75247 33.7487C9.93301 34.1922 10.3494 34.5575 10.4543 35.0038C10.5737 35.5227 10.6494 36.2155 10.3902 36.601C10.2009 36.8821 9.40011 36.9546 8.95166 36.8329C6.78801 36.2531 5.00876 35.0154 3.51489 33.3748C6.22078e-05 29.5197 -0.707562 25.021 0.634886 20.1455C2.88006 11.9744 7.50729 5.53653 14.9068 1.206C17.8683 -0.527373 21.4647 -0.30418 24.1321 1.85239C24.7174 2.32776 25.2445 3.27561 25.2445 4.00606C25.2736 20.276 25.2853 36.5459 25.1513 52.8129C25.1134 57.2536 24.0389 61.5262 21.3424 65.219C19.9795 67.0857 18.2585 68.5553 16.0483 69.3582C14.5661 69.8974 14.0448 69.4249 14.3535 67.8596C14.9592 64.7929 15.9143 61.7494 16.1182 58.6565C16.4822 53.1724 16.4472 47.6621 16.4851 42.1605C16.5666 30.6211 16.587 19.0818 16.622 7.54237C16.622 6.90178 16.5084 6.26408 16.4443 5.62349C16.255 5.55392 16.0658 5.48725 15.8765 5.41769L15.8794 5.42058Z" fill="white"/>
</svg>
